<?xml version="1.0" standalone="no"?>
<svg xmlns="http://www.w3.org/2000/svg" width="24" height="24"><rect width="24" height="24" opacity="0"></rect><g><path d="M19.63 12.74L12.72 19.66Q12.5 19.87 12.5 20.18Q12.5 20.5 12.72 20.71Q12.96 20.93 13.27 20.93Q13.58 20.93 13.8 20.71L21.41 13.1Q21.62 12.89 21.74 12.6Q21.86 12.31 21.86 12Q21.86 11.69 21.74 11.41Q21.62 11.14 21.41 10.92L13.78 3.26Q13.51 3.05 13.22 3.05Q12.94 3.05 12.72 3.26Q12.5 3.48 12.5 3.79Q12.5 4.1 12.72 4.32L19.56 11.23L2.88 11.23Q2.57 11.23 2.35 11.46Q2.14 11.69 2.14 12Q2.14 12.31 2.35 12.53Q2.57 12.74 2.88 12.74Z" fill="rgba(0,0,0,0.9019607843137255)"></path></g></svg>